<svg width="19" height="19" viewBox="0 0 19 19" fill="none" xmlns="http://www.w3.org/2000/svg">
<g clip-path="url(#clip0_1_31)">
<path d="M17.125 4.73439V3.98436C17.125 3.57092 16.7888 3.23438 16.375 3.23438H14.125C13.7112 3.23438 13.375 3.57092 13.375 3.98436V4.73435H13.1553L12.8448 4.42382C12.5657 4.14439 12.179 3.98436 11.7842 3.98436H7.46581C7.07104 3.98436 6.68432 4.14439 6.40525 4.42382L6.09471 4.73435H5.87499V3.98436C5.87499 3.57092 5.53882 3.23438 5.125 3.23438H2.875C2.46118 3.23438 2.12501 3.57092 2.12501 3.98436V4.73435C1.2981 4.73439 0.625 5.4071 0.625 6.23436V15.2344C0.625 16.0617 1.2981 16.7344 2.12501 16.7344H17.125C17.9519 16.7344 18.625 16.0617 18.625 15.2344V6.23436C18.625 5.4071 17.9519 4.73439 17.125 4.73439ZM4.74999 8.48436H3.25001C3.04273 8.48436 2.875 8.31664 2.875 8.10935C2.875 7.9021 3.04273 7.73438 3.25001 7.73438H4.75002C4.9573 7.73438 5.12504 7.9021 5.12504 8.10939C5.125 8.31667 4.95727 8.48436 4.74999 8.48436ZM16 8.48436H15.625V8.85938C15.625 9.06666 15.4572 9.23438 15.25 9.23438C15.0427 9.23438 14.875 9.06666 14.875 8.85938V8.48436H14.4999C14.2927 8.48436 14.1249 8.31664 14.1249 8.10935C14.1249 7.90207 14.2927 7.73433 14.4999 7.73433H14.875V7.35932C14.875 7.15205 15.0427 6.98431 15.25 6.98431C15.4572 6.98431 15.625 7.15205 15.625 7.35932V7.73438H16C16.2073 7.73438 16.375 7.9021 16.375 8.10939C16.375 8.31667 16.2073 8.48436 16 8.48436Z" fill="#5D6C7B"/>
</g>
<defs>
<clipPath id="clip0_1_31">
<rect width="18" height="18" fill="white" transform="translate(0.625 0.984375)"/>
</clipPath>
</defs>
</svg>
