<svg width="17" height="22" viewBox="0 0 17 22" fill="none" xmlns="http://www.w3.org/2000/svg">
<path d="M7.90742 0.736303C7.04375 0.890991 6.26172 1.31208 5.65586 1.95232C4.89102 2.74724 4.5 3.74412 4.5 4.88708V5.31248H3.64922C2.7168 5.31248 2.46328 5.35115 2.07656 5.56169C1.62969 5.79802 1.21289 6.32654 1.0668 6.83787C1.01523 7.00974 0.460938 18.2976 0.460938 19.1269C0.460938 19.3633 0.486719 19.6554 0.521094 19.7758C0.710156 20.4933 1.35039 21.0949 2.08516 21.2496C2.40742 21.3183 14.8426 21.3183 15.1648 21.2496C15.9039 21.0949 16.5355 20.5019 16.7289 19.7758C16.7633 19.6554 16.7891 19.3633 16.7891 19.1269C16.7891 18.2976 16.2348 7.00974 16.1832 6.83787C16.0371 6.32654 15.6203 5.79802 15.1734 5.56169C14.7867 5.35115 14.5289 5.31248 13.6051 5.31248H12.7629L12.7371 4.71951C12.7027 3.82576 12.5051 3.18982 12.041 2.49802C11.1559 1.16599 9.48008 0.452709 7.90742 0.736303ZM9.20508 2.1113C9.98281 2.27458 10.7047 2.83318 11.0656 3.55076C11.2848 3.98904 11.375 4.38005 11.375 4.91287V5.31248H8.625H5.875V4.91287C5.8793 4.06638 6.13711 3.41326 6.68711 2.85896C7.35742 2.19294 8.27695 1.91794 9.20508 2.1113ZM14.3957 6.70466C14.5934 6.77771 14.7137 6.87654 14.7996 7.04841C14.8512 7.15154 14.9199 8.28162 15.1434 12.9781C15.2938 16.1707 15.4098 18.9465 15.4055 19.1484C15.3926 19.5738 15.3238 19.6984 15.0445 19.8359C14.8727 19.9219 14.7996 19.9219 8.625 19.9219C2.45039 19.9219 2.37734 19.9219 2.20547 19.8359C1.92188 19.6941 1.85742 19.5738 1.84453 19.1269C1.84023 18.9121 1.95625 16.1492 2.10664 12.9781C2.41172 6.61443 2.37734 7.00115 2.69102 6.80779L2.8457 6.70896L7.31445 6.68748C9.77227 6.67458 12.3332 6.66169 13.0078 6.6574C13.9488 6.6488 14.2711 6.66169 14.3957 6.70466Z" fill="#5D6C7B"/>
<path d="M4.89531 8.23436C4.56016 8.44061 4.50859 8.76718 4.71484 9.40311C4.92109 10.0433 5.1832 10.4644 5.70313 10.9887C6.30899 11.5988 6.82891 11.8996 7.6582 12.123C8.06641 12.2305 8.91719 12.2562 9.36836 12.1703C10.6961 11.9168 11.766 11.1176 12.359 9.92733C12.5738 9.49765 12.7242 8.96483 12.6941 8.72421C12.6555 8.38046 12.3848 8.14843 12.0195 8.14843C11.6629 8.14843 11.4266 8.34608 11.332 8.7285C11.1387 9.49335 10.6316 10.1723 9.98711 10.5289C9.14063 10.9973 8.09219 10.993 7.25859 10.5117C6.93633 10.3226 6.48086 9.87577 6.2918 9.5621C6.20156 9.41171 6.07266 9.10233 5.99961 8.8746C5.8707 8.4621 5.77188 8.31171 5.54414 8.19569C5.39375 8.11835 5.0543 8.13983 4.89531 8.23436Z" fill="#5D6C7B"/>
</svg>
