<svg width="24" height="25" viewBox="0 0 24 25" fill="none" xmlns="http://www.w3.org/2000/svg">
<path d="M11.2172 1.32033C10.275 1.48908 9.42188 1.94845 8.76094 2.64689C7.92656 3.51408 7.5 4.60158 7.5 5.84845V6.31251H6.57188C5.55469 6.31251 5.27813 6.3547 4.85625 6.58439C4.36875 6.8422 3.91406 7.41876 3.75469 7.97658C3.69844 8.16408 3.09375 20.4781 3.09375 21.3828C3.09375 21.6406 3.12188 21.9594 3.15938 22.0906C3.36563 22.8734 4.06406 23.5297 4.86563 23.6984C5.21719 23.7734 18.7828 23.7734 19.1344 23.6984C19.9406 23.5297 20.6297 22.8828 20.8406 22.0906C20.8781 21.9594 20.9062 21.6406 20.9062 21.3828C20.9062 20.4781 20.3016 8.16408 20.2453 7.97658C20.0859 7.41876 19.6313 6.8422 19.1438 6.58439C18.7219 6.3547 18.4406 6.31251 17.4328 6.31251H16.5141L16.4859 5.66564C16.4484 4.69064 16.2328 3.99689 15.7266 3.2422C14.7609 1.78908 12.9328 1.01095 11.2172 1.32033ZM12.6328 2.82033C13.4813 2.99845 14.2688 3.60783 14.6625 4.39064C14.9016 4.86876 15 5.29533 15 5.87658V6.31251H12H9V5.87658C9.00469 4.95314 9.28594 4.24064 9.88594 3.63595C10.6172 2.90939 11.6203 2.60939 12.6328 2.82033ZM18.2953 7.83126C18.5109 7.91095 18.6422 8.01876 18.7359 8.20626C18.7922 8.31876 18.8672 9.55158 19.1109 14.675C19.275 18.1578 19.4016 21.1859 19.3969 21.4063C19.3828 21.8703 19.3078 22.0063 19.0031 22.1563C18.8156 22.25 18.7359 22.25 12 22.25C5.26406 22.25 5.18438 22.25 4.99688 22.1563C4.6875 22.0016 4.61719 21.8703 4.60313 21.3828C4.59844 21.1484 4.725 18.1344 4.88906 14.675C5.22188 7.73283 5.18438 8.1547 5.52656 7.94376L5.69531 7.83595L10.5703 7.81251C13.2516 7.79845 16.0453 7.78439 16.7813 7.7797C17.8078 7.77033 18.1594 7.78439 18.2953 7.83126Z" fill="#24A19C"/>
<path d="M7.93126 9.50002C7.56564 9.72502 7.50939 10.0813 7.73439 10.775C7.95939 11.4735 8.24532 11.9328 8.81251 12.5047C9.47345 13.1703 10.0406 13.4985 10.9453 13.7422C11.3906 13.8594 12.3188 13.8875 12.811 13.7938C14.2594 13.5172 15.4266 12.6453 16.0735 11.3469C16.3078 10.8781 16.4719 10.2969 16.4391 10.0344C16.3969 9.65939 16.1016 9.40627 15.7031 9.40627C15.3141 9.40627 15.0563 9.62189 14.9531 10.0391C14.7422 10.8735 14.1891 11.6141 13.4859 12.0031C12.5625 12.5141 11.4188 12.5094 10.5094 11.9844C10.1578 11.7781 9.66095 11.2906 9.4547 10.9485C9.35626 10.7844 9.21564 10.4469 9.13595 10.1985C8.99532 9.74846 8.88751 9.58439 8.63907 9.45783C8.47501 9.37346 8.1047 9.39689 7.93126 9.50002Z" fill="#24A19C"/>
</svg>
