<svg width="16" height="17" viewBox="0 0 16 17" fill="none" xmlns="http://www.w3.org/2000/svg">
<g clip-path="url(#clip0_1_329)">
<path d="M1.53124 0.862514C0.806238 1.01564 0.199988 1.63126 0.0468628 2.35939C-0.0218872 2.68751 -0.0218872 14.9375 0.0468628 15.2656C0.165613 15.8281 0.556238 16.3406 1.06561 16.5906C1.53124 16.8188 1.38124 16.8125 5.01249 16.8125H8.25624L8.37811 16.7438C8.45624 16.7 8.52186 16.6281 8.56249 16.5469C8.62499 16.4188 8.62499 16.3688 8.61874 13.4281C8.60936 10.4469 8.60936 10.4406 8.54374 10.3531C8.50624 10.3063 8.43124 10.2375 8.37186 10.2031C8.27499 10.1438 8.19999 10.1406 7.36874 10.1313L6.46874 10.1219V9.45001V8.78126H7.38749C8.71249 8.78126 8.62499 8.88439 8.62499 7.32814C8.62499 6.09376 8.64374 5.95001 8.83436 5.56251C8.99061 5.24064 9.33436 4.89689 9.65624 4.74064C10.0312 4.55626 10.2062 4.53126 11.2281 4.53126H12.125V5.20314V5.87501H11.2656C10.3281 5.87501 10.275 5.88439 10.1187 6.05001C10.0719 6.10001 10.0187 6.18126 10.0031 6.22814C9.98124 6.28439 9.96874 6.70001 9.96874 7.36876C9.96874 8.54376 9.97186 8.56876 10.1844 8.70939C10.2875 8.78126 10.3062 8.78126 11.2062 8.78126H12.125V9.45001V10.1219L11.2281 10.1313C10.3937 10.1406 10.3187 10.1438 10.2219 10.2031C10.1625 10.2375 10.0875 10.3063 10.05 10.3531C9.98436 10.4406 9.98436 10.4469 9.97499 13.4438L9.96874 16.4438L10.0344 16.5625C10.0719 16.6281 10.1531 16.7094 10.2187 16.7469C10.3344 16.8125 10.3594 16.8125 12.2844 16.8125C14.4781 16.8125 14.4875 16.8094 14.9344 16.5906C15.4437 16.3406 15.8344 15.8281 15.9531 15.2656C16.0219 14.9375 16.0219 2.68751 15.9531 2.35939C15.8 1.62189 15.1906 1.01251 14.4531 0.859388C14.1344 0.793764 1.84374 0.793764 1.53124 0.862514ZM14.2187 1.78126C14.6531 1.86251 14.95 2.15939 15.0312 2.59064C15.075 2.82189 15.075 14.8031 15.0312 15.0344C14.95 15.4656 14.6531 15.7625 14.2187 15.8438C14.1219 15.8625 13.4 15.875 12.4812 15.875H10.9062V13.4875V11.0969L11.8219 11.0875C12.8687 11.0781 12.8937 11.0719 13.025 10.8125C13.0969 10.6719 13.0969 10.6688 13.0875 9.41564L13.0781 8.16251L12.9812 8.04064C12.9281 7.97501 12.8375 7.90626 12.7781 7.88439C12.7062 7.85939 12.3875 7.84689 11.7906 7.84689L10.9062 7.84376V7.32814V6.81251H11.8156C12.8344 6.81251 12.8781 6.80626 13.0062 6.59689C13.0781 6.48439 13.0781 6.48126 13.0781 5.19689C13.0781 3.94064 13.0781 3.90939 13.0125 3.82189C12.9781 3.77501 12.9 3.70314 12.8406 3.66251L12.7344 3.59064L11.375 3.60001L10.0156 3.61251L9.74061 3.69689C8.73749 4.00939 8.06561 4.69064 7.77186 5.70314C7.71561 5.89689 7.70624 6.03126 7.69374 6.88126L7.68124 7.84376H6.79374C5.79686 7.84376 5.75624 7.85001 5.60624 8.05001L5.51561 8.16564L5.50624 9.41876C5.49374 11.1906 5.40624 11.0719 6.77499 11.0875L7.68749 11.0969V13.4875V15.875H4.81561C2.99999 15.875 1.88436 15.8625 1.77811 15.8438C1.34686 15.7625 1.04999 15.4656 0.968738 15.0313C0.924988 14.8031 0.924988 2.81876 0.968738 2.59064C1.04999 2.17189 1.34999 1.86251 1.75624 1.78439C1.95311 1.74376 14.0156 1.74376 14.2187 1.78126Z" fill="#ECF3FF"/>
</g>
<defs>
<clipPath id="clip0_1_329">
<rect width="16" height="16" fill="white" transform="translate(0 0.8125)"/>
</clipPath>
</defs>
</svg>
