<svg width="16" height="19" viewBox="0 0 16 19" fill="none" xmlns="http://www.w3.org/2000/svg">
<path d="M13.0775 6.34257L14.1553 5.26481L13.0948 4.20393L11.9418 5.35687C10.8886 4.61047 9.6595 4.15044 8.375 4.02187V2.48438H9.875V0.984375H5.375V2.48438H6.875V4.02187C5.59051 4.15044 4.36144 4.61047 3.30819 5.35687L2.15525 4.20393L1.09475 5.26481L2.1725 6.34257C1.16649 7.40771 0.494481 8.74419 0.239481 10.187C-0.0155294 11.6298 0.157631 13.1156 0.737571 14.4611C1.31752 15.8066 2.27884 16.9527 3.50283 17.758C4.72682 18.5632 6.15987 18.9924 7.625 18.9924C9.0901 18.9924 10.5232 18.5632 11.7472 17.758C12.9712 16.9527 13.9325 15.8066 14.5124 14.4611C15.0924 13.1156 15.2655 11.6298 15.0105 10.187C14.7555 8.74419 14.0835 7.40771 13.0775 6.34257ZM7.625 17.4844C6.43832 17.4844 5.27828 17.1325 4.29158 16.4732C3.30489 15.8139 2.53585 14.8769 2.08173 13.7805C1.6276 12.6841 1.50878 11.4777 1.74029 10.3138C1.9718 9.14995 2.54325 8.08084 3.38236 7.24173C4.22148 6.40262 5.29058 5.83118 6.45446 5.59967C7.61835 5.36816 8.8247 5.48697 9.9211 5.94109C11.0175 6.39523 11.9545 7.16426 12.6138 8.15096C13.2731 9.13764 13.625 10.2977 13.625 11.4844C13.6232 13.0752 12.9905 14.6002 11.8657 15.7251C10.7408 16.8499 9.2158 17.4826 7.625 17.4844Z" fill="#5D6C7B"/>
<path d="M7.625 6.98438V11.4844H3.125C3.125 12.3744 3.38892 13.2444 3.88339 13.9845C4.37785 14.7245 5.08066 15.3013 5.90292 15.6419C6.72519 15.9825 7.62999 16.0716 8.50291 15.8979C9.3758 15.7243 10.1776 15.2957 10.807 14.6664C11.4363 14.037 11.8649 13.2352 12.0385 12.3623C12.2122 11.4894 12.1231 10.5846 11.7825 9.76229C11.4419 8.94003 10.8651 8.23722 10.1251 7.74276C9.385 7.24829 8.51502 6.98438 7.625 6.98438Z" fill="#5D6C7B"/>
</svg>
