<svg width="24" height="25" viewBox="0 0 24 25" fill="none" xmlns="http://www.w3.org/2000/svg">
<path d="M21.5941 7.1178C21.2813 6.38633 20.8303 5.72349 20.2663 5.16636C19.7018 4.60757 19.0364 4.16351 18.3061 3.85833C17.5488 3.54062 16.7365 3.37799 15.9164 3.3799C14.766 3.3799 13.6435 3.69807 12.6682 4.29905C12.4348 4.44282 12.213 4.60072 12.003 4.77278C11.793 4.60072 11.5713 4.44282 11.338 4.29905C10.3625 3.69807 9.24005 3.3799 8.08959 3.3799C7.26116 3.3799 6.4584 3.54016 5.69998 3.85833C4.96722 4.16471 4.30682 4.60544 3.73976 5.16636C3.17501 5.72286 2.72388 6.38586 2.41193 7.1178C2.08756 7.87906 1.92188 8.68744 1.92188 9.5194C1.92188 10.3042 2.08056 11.122 2.3956 11.954C2.6593 12.6493 3.03734 13.3705 3.5204 14.0986C4.28582 15.2511 5.33826 16.4532 6.64509 17.6716C8.81067 19.6915 10.9552 21.0866 11.0463 21.1432L11.5993 21.5014C11.8444 21.6594 12.1594 21.6594 12.4044 21.5014L12.9575 21.1432C13.0484 21.0843 15.1907 19.6915 17.3586 17.6716C18.6654 16.4532 19.7179 15.2511 20.4833 14.0986C20.9664 13.3705 21.3468 12.6493 21.6082 11.954C21.9232 11.122 22.0818 10.3042 22.0818 9.5194C22.0842 8.68744 21.9185 7.87906 21.5941 7.1178ZM12.003 19.6372C12.003 19.6372 3.69542 14.2614 3.69542 9.5194C3.69542 7.1178 5.66264 5.17108 8.08959 5.17108C9.79545 5.17108 11.275 6.13265 12.003 7.53731C12.7312 6.13265 14.2106 5.17108 15.9164 5.17108C18.3434 5.17108 20.3106 7.1178 20.3106 9.5194C20.3106 14.2614 12.003 19.6372 12.003 19.6372Z" fill="#BA006D"/>
</svg>
