<svg width="16" height="17" viewBox="0 0 16 17" fill="none" xmlns="http://www.w3.org/2000/svg">
<g clip-path="url(#clip0_1_341)">
<path d="M4.48126 0.843738C2.12501 1.09374 0.281262 2.94999 0.0312622 5.31874C-0.00936279 5.70311 -0.00936279 11.9219 0.0312622 12.3062C0.284387 14.6937 2.11876 16.5281 4.50626 16.7812C4.89064 16.8219 11.1094 16.8219 11.4938 16.7812C13.8813 16.5281 15.7156 14.6937 15.9688 12.3062C16.0094 11.9219 16.0094 5.70311 15.9688 5.31874C15.7156 2.93124 13.8813 1.09686 11.4938 0.843738C11.1531 0.809362 4.81876 0.809362 4.48126 0.843738ZM11.7188 2.38749C12.4219 2.55624 12.9875 2.86561 13.4688 3.34374C13.9594 3.83749 14.275 4.42499 14.4281 5.12499C14.4813 5.37186 14.4844 5.61874 14.4844 8.81249C14.4844 12.0062 14.4813 12.2531 14.4281 12.5C14.275 13.2 13.9594 13.7875 13.4688 14.2812C12.975 14.7719 12.3875 15.0875 11.6875 15.2406C11.4406 15.2937 11.1938 15.2969 8.00001 15.2969C4.80626 15.2969 4.55939 15.2937 4.31251 15.2406C3.61251 15.0875 3.02501 14.7719 2.53126 14.2812C2.04064 13.7875 1.72501 13.2 1.57189 12.5C1.51876 12.2531 1.51564 12.0062 1.51564 8.81249C1.51564 5.61874 1.51876 5.37186 1.57189 5.12499C1.80314 4.04999 2.47814 3.17186 3.43751 2.68749C3.79689 2.50936 4.08751 2.42186 4.62501 2.33436C4.66876 2.32499 6.22814 2.32186 8.09376 2.32499C11.2344 2.33124 11.5 2.33436 11.7188 2.38749Z" fill="#ECF3FF"/>
<path d="M12.1562 4.00938C11.9125 4.09063 11.7812 4.26875 11.7812 4.51875C11.7812 4.80938 12.0031 5.03125 12.2937 5.03125C12.55 5.03125 12.7469 4.88125 12.8094 4.64063C12.9094 4.24688 12.5344 3.88438 12.1562 4.00938Z" fill="#ECF3FF"/>
<path d="M7.48752 4.84686C5.97814 5.05623 4.69064 6.10936 4.21877 7.52498C4.06252 7.99998 4.01877 8.28123 4.01877 8.81248C4.01877 9.34686 4.06252 9.62498 4.22189 10.1094C4.60002 11.2406 5.57502 12.2125 6.71252 12.5937C7.18752 12.75 7.46877 12.7937 8.00002 12.7937C8.53127 12.7937 8.81252 12.75 9.28752 12.5937C10.425 12.2125 11.4 11.2406 11.7781 10.1094C11.9375 9.62498 11.9813 9.34686 11.9813 8.81248C11.9813 8.46561 11.9656 8.25311 11.9281 8.06248C11.75 7.21561 11.3719 6.52498 10.7688 5.94373C10.2 5.39686 9.54689 5.04998 8.76564 4.89061C8.46564 4.82811 7.78439 4.80311 7.48752 4.84686ZM8.70314 6.42186C9.92814 6.78123 10.7031 8.04686 10.45 9.27498C10.2406 10.3 9.48752 11.0531 8.46252 11.2625C7.67814 11.425 6.82502 11.1594 6.24064 10.5719C5.07814 9.40936 5.32502 7.50623 6.75314 6.65311C7.31564 6.31561 8.05002 6.22811 8.70314 6.42186Z" fill="#ECF3FF"/>
</g>
<defs>
<clipPath id="clip0_1_341">
<rect width="16" height="16" fill="white" transform="translate(0 0.8125)"/>
</clipPath>
</defs>
</svg>
