<svg width="24" height="25" viewBox="0 0 24 25" fill="none" xmlns="http://www.w3.org/2000/svg">
<g clip-path="url(#clip0_1_385)">
<path d="M12 0.5C13.625 0.5 15.1738 0.824219 16.5898 1.41016L16.6113 1.41992C18.0703 2.02734 19.3848 2.91602 20.4844 4.01758C21.5898 5.12109 22.4805 6.44336 23.0898 7.91406C23.6777 9.32812 24 10.8789 24 12.502C24 14.127 23.6758 15.6758 23.0898 17.0918L23.0801 17.1133C22.4707 18.5723 21.584 19.8867 20.4824 20.9863C19.3789 22.0918 18.0566 22.9824 16.5859 23.5918C15.1719 24.1797 13.6211 24.502 11.998 24.502C10.375 24.502 8.82422 24.1777 7.4082 23.5918L7.38672 23.582C5.92773 22.9746 4.61328 22.0859 3.51367 20.9863L3.51562 20.9824C2.41016 19.877 1.51953 18.5566 0.910156 17.0898C0.324219 15.6738 0 14.125 0 12.5C0 10.875 0.324219 9.32617 0.910156 7.91016L0.919922 7.88867C1.52734 6.42969 2.41602 5.11523 3.51562 4.01562H3.51758C4.62305 2.91016 5.94336 2.01953 7.41211 1.41016C8.82617 0.824219 10.375 0.5 12 0.5ZM3.31836 18.9512L3.36523 18.9238C4.51758 18.2812 7.51758 18.0684 8.76367 17.1992C8.85547 17.0625 8.95312 16.8633 9.04883 16.6465C9.19141 16.3203 9.32227 15.9629 9.4043 15.7207C9.05664 15.3105 8.75781 14.8477 8.47266 14.3926L7.5293 12.8906C7.18555 12.375 7.00586 11.9062 6.99414 11.5195C6.98828 11.3379 7.01953 11.1738 7.08789 11.0273C7.1582 10.875 7.26562 10.748 7.41211 10.6504C7.48047 10.6035 7.55664 10.5645 7.64062 10.5352C7.57812 9.7207 7.55664 8.69531 7.5957 7.83594C7.61523 7.63281 7.65625 7.42773 7.71094 7.22461C7.95312 6.36328 8.55664 5.66992 9.30469 5.19336C9.7168 4.92969 10.1699 4.73242 10.6406 4.59961C10.9414 4.51367 10.3848 3.55664 10.6953 3.52344C12.1934 3.36914 14.6172 4.73828 15.6641 5.86914C16.1875 6.43555 16.5176 7.1875 16.5879 8.18164L16.5293 10.6309C16.791 10.7109 16.959 10.877 17.0254 11.1445C17.1016 11.4434 17.0195 11.8613 16.7656 12.4336C16.7617 12.4434 16.7559 12.4551 16.75 12.4648L15.6738 14.2363C15.2793 14.8867 14.877 15.541 14.3555 16.0547C14.4043 16.125 14.4531 16.1934 14.5 16.2617C14.7129 16.5742 14.9277 16.8867 15.2031 17.166C15.2129 17.1758 15.2207 17.1855 15.2266 17.1953C16.4648 18.0703 19.4785 18.2832 20.6348 18.9277L20.6816 18.9551C22.0234 17.1543 22.8164 14.9219 22.8164 12.5039C22.8164 9.51758 21.6055 6.8125 19.6484 4.85742C17.6953 2.89844 14.9902 1.6875 12.0039 1.6875C9.01758 1.6875 6.3125 2.89844 4.35742 4.85547C2.39648 6.80859 1.18555 9.51367 1.18555 12.5C1.18555 14.918 1.97852 17.1504 3.31836 18.9512Z" fill="#24A19C"/>
</g>
<defs>
<clipPath id="clip0_1_385">
<rect width="24" height="24" fill="white" transform="translate(0 0.5)"/>
</clipPath>
</defs>
</svg>
