<svg width="19" height="19" viewBox="0 0 19 19" fill="none" xmlns="http://www.w3.org/2000/svg">
<g clip-path="url(#clip0_1_36)">
<path d="M14.849 1.24511C14.7657 1.08556 14.6006 0.984375 14.4205 0.984375H7.35492C7.14125 0.984375 6.95295 1.1258 6.89181 1.33047L4.36786 9.7885C4.32418 9.9348 4.35221 10.0923 4.44343 10.2147C4.53465 10.3371 4.67837 10.4084 4.83096 10.4084H8.79263L7.19664 18.4056C7.15019 18.6382 7.27934 18.8706 7.50153 18.9535C7.55693 18.9742 7.61408 18.9844 7.67044 18.9844C7.83995 18.9844 8.00246 18.895 8.09054 18.7403L14.3146 7.81035C14.3998 7.66072 14.399 7.4761 14.3125 7.32725C14.226 7.1784 14.0668 7.08584 13.8947 7.08584H11.0921L14.8169 1.74464C14.9199 1.59694 14.9323 1.40477 14.849 1.24511Z" fill="#5D6C7B"/>
</g>
<defs>
<clipPath id="clip0_1_36">
<rect width="18" height="18" fill="white" transform="translate(0.625 0.984375)"/>
</clipPath>
</defs>
</svg>
