<svg width="24" height="25" viewBox="0 0 24 25" fill="none" xmlns="http://www.w3.org/2000/svg">
<path d="M11.6953 2.06564C11.5219 2.14532 11.3672 2.30939 11.3016 2.48282C11.2734 2.55783 11.25 2.96564 11.25 3.43439V4.25001H7.81875C4.57031 4.25001 4.37344 4.2547 4.19062 4.33907C4.08281 4.38595 3.94687 4.49845 3.88594 4.58282L3.77344 4.7422L3.75937 6.43907L3.74531 8.14064L3.61875 8.16876C3.54844 8.18751 3.32344 8.28595 3.11719 8.39376C2.58281 8.66564 2.1 9.15314 1.84219 9.68751C1.58906 10.2078 1.52344 10.4984 1.52812 11.0703C1.53281 11.4641 1.55156 11.6047 1.66875 11.9375C1.98281 12.8422 2.65312 13.5125 3.5625 13.8313C3.91875 13.9578 4.01719 13.9719 4.5 13.9719C4.96406 13.9719 5.09062 13.9531 5.40937 13.8453C6.02812 13.6297 6.43125 13.3484 6.82969 12.8516C8.08125 11.2859 7.42969 8.94689 5.54531 8.2297L5.25 8.1172V6.93126V5.75001H8.25H11.25V11.9563V18.1625L10.1719 20.0281C9.57656 21.0594 9.07031 21.9734 9.0375 22.0719C8.92969 22.4281 9.15469 22.8547 9.50625 22.9531C9.62344 22.9906 10.4859 23 12.1031 22.9906C14.4656 22.9766 14.5266 22.9719 14.6531 22.8781C14.8594 22.7281 14.9625 22.5594 14.9859 22.3344C15.0141 22.0766 15.0469 22.1328 13.7625 19.9109L12.75 18.1625V11.9563V5.75001H15.75H18.75V6.94532C18.75 7.93907 18.7406 8.14064 18.6844 8.14064C18.6469 8.14064 18.4219 8.23907 18.1828 8.35626C16.2141 9.34532 15.9422 11.9609 17.6672 13.3438C18.2203 13.7891 18.7734 13.9766 19.5234 13.9719C19.9594 13.9719 20.0953 13.9531 20.4141 13.8406C21.3422 13.5219 22.0078 12.8563 22.3312 11.9375C22.4484 11.6047 22.4672 11.4641 22.4719 11.0703C22.4766 10.5031 22.4109 10.2078 22.1672 9.70626C21.8438 9.04532 21.2391 8.4922 20.5453 8.2297L20.2547 8.1172L20.2406 6.4297L20.2266 4.7422L20.1141 4.58282C20.0531 4.49845 19.9172 4.38595 19.8094 4.33907C19.6266 4.2547 19.4297 4.25001 16.1859 4.25001H12.7547L12.7406 3.36407C12.7266 2.39376 12.7125 2.35157 12.4125 2.12658C12.2531 2.00939 11.8828 1.97657 11.6953 2.06564ZM5.03906 9.62657C5.36719 9.73439 5.76562 10.1375 5.8875 10.4844C6.14531 11.2438 5.82187 12.0219 5.11406 12.35C4.74375 12.5234 4.25625 12.5234 3.88594 12.35C3.3375 12.0969 3.02812 11.6094 3.02812 11C3.02812 10.5781 3.13125 10.3109 3.42187 9.99689C3.83437 9.55157 4.3875 9.42501 5.03906 9.62657ZM20.025 9.62657C20.325 9.72032 20.6812 10.0484 20.8453 10.3813C21.1078 10.9156 20.9812 11.6234 20.5547 12.0547C19.9875 12.6172 19.0125 12.6172 18.4453 12.0547C17.9062 11.5109 17.8828 10.5969 18.4031 10.0203C18.8203 9.55626 19.3734 9.42032 20.025 9.62657ZM12.4922 20.7031L12.9375 21.4766L12.4687 21.4906C12.2109 21.4953 11.7891 21.4953 11.5312 21.4906L11.0625 21.4766L11.5172 20.6891C11.7703 20.2578 11.9906 19.9109 12.0094 19.9156C12.0328 19.925 12.2484 20.2766 12.4922 20.7031Z" fill="#24A19C"/>
</svg>
