<svg width="19" height="19" viewBox="0 0 19 19" fill="none" xmlns="http://www.w3.org/2000/svg">
<path d="M8.04999 2.29999C4.74339 2.29999 2.04999 4.99339 2.04999 8.29999C2.04999 11.6066 4.74339 14.3 8.04999 14.3C9.48789 14.3 10.8084 13.7894 11.8433 12.9418L15.4258 16.5242C15.4811 16.5818 15.5473 16.6278 15.6206 16.6594C15.6938 16.6911 15.7727 16.7078 15.8525 16.7087C15.9323 16.7095 16.0115 16.6943 16.0854 16.6642C16.1593 16.634 16.2265 16.5894 16.2829 16.5329C16.3394 16.4765 16.384 16.4093 16.4142 16.3354C16.4443 16.2615 16.4595 16.1823 16.4587 16.1025C16.4578 16.0227 16.4411 15.9438 16.4094 15.8706C16.3778 15.7973 16.3318 15.7311 16.2742 15.6758L12.6918 12.0933C13.5394 11.0584 14.05 9.73789 14.05 8.29999C14.05 4.99339 11.3566 2.29999 8.04999 2.29999ZM8.04999 3.49999C10.7081 3.49999 12.85 5.64191 12.85 8.29999C12.85 10.9581 10.7081 13.1 8.04999 13.1C5.39191 13.1 3.24999 10.9581 3.24999 8.29999C3.24999 5.64191 5.39191 3.49999 8.04999 3.49999Z" fill="white"/>
</svg>
