<svg width="19" height="19" viewBox="0 0 19 19" fill="none" xmlns="http://www.w3.org/2000/svg">
<g clip-path="url(#clip0_1_41)">
<path d="M9.09743 5.54856V2.22021C7.06463 2.33689 5.15832 3.12682 3.63672 4.4829L5.98994 6.83612C6.87552 6.09889 7.95085 5.65332 9.09743 5.54856Z" fill="#5D6C7B"/>
<path d="M5.24376 7.5817L2.89057 5.22852C1.53333 6.74969 0.742422 8.65614 0.625 10.6894H3.95349C4.05896 9.5426 4.50544 8.46721 5.24376 7.5817Z" fill="#5D6C7B"/>
<path d="M15.2942 10.6894H18.6227C18.5052 8.65614 17.7144 6.74969 16.3571 5.22852L14.0039 7.5817C14.7422 8.46718 15.1887 9.5426 15.2942 10.6894Z" fill="#5D6C7B"/>
<path d="M15.2946 11.7442C15.1201 13.6601 14.0684 14.8291 13.6508 15.2466C13.4445 15.4529 13.4445 15.7874 13.6508 15.9937L15.2509 17.5938C15.354 17.697 15.4892 17.7485 15.6244 17.7485C15.7596 17.7485 15.8947 17.697 15.9979 17.5938C17.5773 16.0146 18.4982 13.9539 18.6242 11.7442H15.2946Z" fill="#5D6C7B"/>
<path d="M3.89689 14.77C4.04419 14.5385 4.26715 14.1899 4.53462 13.7775C4.26044 13.234 4.02858 12.5565 3.95465 11.7442H0.625C0.751035 13.9539 1.67195 16.0146 3.25128 17.5938C3.35443 17.697 3.4896 17.7486 3.62478 17.7486C3.75995 17.7486 3.89516 17.697 3.99831 17.5938L4.54619 17.0459C4.38749 16.9695 4.24107 16.8663 4.11285 16.7381C3.58452 16.2097 3.49568 15.4004 3.89689 14.77Z" fill="#5D6C7B"/>
<path d="M10.1523 2.22021V5.54856C11.2989 5.65332 12.3743 6.09887 13.2598 6.83612L15.6131 4.4829C14.0915 3.12678 12.1851 2.33689 10.1523 2.22021Z" fill="#5D6C7B"/>
<path d="M8.45225 10.0539C7.63606 10.8701 5.07492 14.8812 4.78559 15.3359C4.65287 15.5444 4.68283 15.8171 4.85759 15.9919C5.03235 16.1667 5.30506 16.1967 5.51361 16.0639C5.96828 15.7746 9.97948 13.2135 10.7957 12.3973C11.4417 11.7512 11.4417 10.7 10.7957 10.0539C10.1496 9.40783 9.09832 9.40781 8.45225 10.0539Z" fill="#5D6C7B"/>
</g>
<defs>
<clipPath id="clip0_1_41">
<rect width="18" height="18" fill="white" transform="translate(0.625 0.984375)"/>
</clipPath>
</defs>
</svg>
