<svg width="23" height="23" viewBox="0 0 23 23" fill="none" xmlns="http://www.w3.org/2000/svg">
<g clip-path="url(#clip0_1_66)">
<path d="M20.4196 7.05069C20.1328 6.38018 19.7195 5.77257 19.2025 5.26187C18.685 4.74965 18.0751 4.34259 17.4056 4.06284C16.7114 3.77161 15.9668 3.62253 15.2151 3.62428C14.1605 3.62428 13.1316 3.91594 12.2375 4.46684C12.0235 4.59863 11.8203 4.74337 11.6278 4.90109C11.4353 4.74337 11.232 4.59863 11.0181 4.46684C10.124 3.91594 9.09505 3.62428 8.04045 3.62428C7.28106 3.62428 6.5452 3.77119 5.84998 4.06284C5.17829 4.34369 4.57291 4.74769 4.05311 5.26187C3.53543 5.772 3.12189 6.37975 2.83594 7.05069C2.5386 7.74851 2.38672 8.48953 2.38672 9.25216C2.38672 9.97158 2.53218 10.7212 2.82097 11.4839C3.06269 12.1212 3.40922 12.7823 3.85203 13.4498C4.55366 14.5062 5.51841 15.6081 6.71633 16.725C8.70144 18.5766 10.6673 19.8554 10.7507 19.9073L11.2577 20.2357C11.4823 20.3805 11.7711 20.3805 11.9957 20.2357L12.5027 19.9073C12.5861 19.8533 14.5498 18.5766 16.5371 16.725C17.735 15.6081 18.6998 14.5062 19.4013 13.4498C19.8442 12.7823 20.1929 12.1212 20.4325 11.4839C20.7212 10.7212 20.8667 9.97158 20.8667 9.25216C20.8689 8.48953 20.7169 7.74851 20.4196 7.05069ZM11.6278 18.5268C11.6278 18.5268 4.01246 13.599 4.01246 9.25216C4.01246 7.05069 5.81575 5.2662 8.04045 5.2662C9.60416 5.2662 10.9604 6.14764 11.6278 7.43524C12.2952 6.14764 13.6514 5.2662 15.2151 5.2662C17.4398 5.2662 19.2431 7.05069 19.2431 9.25216C19.2431 13.599 11.6278 18.5268 11.6278 18.5268Z" fill="#5D6C7B"/>
</g>
<defs>
<clipPath id="clip0_1_66">
<rect width="22" height="22" fill="white" transform="translate(0.625 0.984375)"/>
</clipPath>
</defs>
</svg>
