<svg width="16" height="17" viewBox="0 0 16 17" fill="none" xmlns="http://www.w3.org/2000/svg">
<path d="M14.2969 2.05939C13.9875 2.16251 10.8531 3.19689 7.32813 4.35939C3.80625 5.51876 0.821878 6.50314 0.696878 6.55001C0.415628 6.65001 0.221878 6.81876 0.103128 7.05626C-0.0156223 7.29689 -0.0187473 7.65939 0.0906277 7.87501C0.181253 8.05314 0.356253 8.23751 0.506253 8.31564C0.568753 8.34689 1.39063 8.71251 2.33125 9.12501C3.27188 9.53751 4.04375 9.87814 4.05 9.88439C4.05625 9.89064 4.3 11.0031 4.59063 12.3563C4.88438 13.7094 5.14688 14.8688 5.17813 14.9313C5.29688 15.175 5.58125 15.2563 5.82813 15.1156C5.89688 15.075 6.54688 14.5969 7.27188 14.0531L8.59063 13.0656L10.1156 14.3125C10.9531 15 11.7094 15.5969 11.7938 15.6438C11.9938 15.7531 12.2688 15.7781 12.5156 15.7031C12.7688 15.6313 13.0563 15.3469 13.1344 15.0938C13.1625 15 13.8219 12.2219 14.5969 8.92189C16.1438 2.33751 16.0625 2.74376 15.8969 2.41876C15.7281 2.09064 15.4469 1.90626 15.0781 1.88439C14.8781 1.87501 14.8125 1.88751 14.2969 2.05939ZM15.0469 2.89689C15.0344 2.94689 14.4 5.64064 13.6375 8.88751C12.875 12.1344 12.2438 14.8 12.2344 14.8063C12.225 14.8156 12.1938 14.8 12.1656 14.775C12.1344 14.75 11.0563 13.8656 9.76563 12.8125C8.47813 11.7594 7.40938 10.8875 7.39688 10.875C7.38438 10.8625 8.47188 9.70314 9.81875 8.29689C11.1656 6.89064 12.2969 5.69064 12.3344 5.62814C12.3813 5.55314 12.4063 5.46564 12.4063 5.37189C12.4063 5.24689 12.3875 5.20626 12.2875 5.09376C12.175 4.96564 12.1563 4.95626 11.9813 4.94689L11.7969 4.93439L8.11875 6.97814L4.44375 9.02189L2.6875 8.25626C1.725 7.83439 0.946878 7.47814 0.962503 7.46251C0.987503 7.43751 14.9563 2.81876 15.0281 2.81564C15.0594 2.81251 15.0625 2.83439 15.0469 2.89689ZM9.40625 7.35626C9.40625 7.36251 8.70938 8.10001 7.85625 8.99064C7.00313 9.88126 6.28438 10.65 6.2625 10.7031C6.24063 10.7531 6.09688 11.225 5.95 11.75C5.8 12.275 5.66875 12.7125 5.65625 12.7281C5.6375 12.75 5.025 9.96876 5.01875 9.83439C5.01563 9.79376 5.54688 9.48439 7.20313 8.56251C8.40625 7.89376 9.39375 7.34376 9.4 7.34376C9.40313 7.34376 9.40625 7.35001 9.40625 7.35626ZM7.43125 12.1188C7.64375 12.2906 7.81563 12.4406 7.81563 12.4531C7.81563 12.4844 6.45313 13.5 6.44375 13.475C6.44063 13.4625 6.52188 13.1563 6.625 12.7969C6.9625 11.6281 6.93438 11.7063 6.99375 11.7594C7.02188 11.7844 7.21875 11.9438 7.43125 12.1188Z" fill="#ECF3FF"/>
</svg>
