<svg width="16" height="17" viewBox="0 0 16 17" fill="none" xmlns="http://www.w3.org/2000/svg">
<g clip-path="url(#clip0_1_337)">
<path d="M14.7813 1.91874C14.6875 1.95936 14.2875 2.15311 13.8906 2.34999C13.4969 2.54686 13.0844 2.74998 12.9781 2.79686L12.7813 2.88436L12.5656 2.78749C11.3469 2.24374 9.84063 2.51873 8.86563 3.46561C8.1 4.20623 7.6875 5.15936 7.63438 6.30624L7.61563 6.72186L7.47188 6.70311C5.23125 6.40624 3.36563 5.13436 2.22813 3.12498C2.07813 2.86561 1.97188 2.77499 1.78438 2.75624C1.58438 2.73748 1.4625 2.78749 1.34375 2.93748C1.20938 3.10624 1.00938 3.49061 0.921875 3.74998C0.834375 4.00624 0.75 4.52811 0.75 4.79998C0.753125 5.19374 0.88125 5.79061 1.04375 6.14686C1.09063 6.24374 1.11875 6.32811 1.1125 6.33436C1.10625 6.34374 0.978125 6.31249 0.834375 6.26874C0.51875 6.17186 0.396875 6.16874 0.25 6.24686C0.134375 6.30624 0 6.52186 0 6.64374C0 6.68436 0.028125 6.84061 0.0625 6.99061C0.334375 8.14999 1.00625 9.04374 2.05313 9.64061L2.2875 9.77499L2.12188 9.82186C2.02813 9.84999 1.89063 9.88749 1.81563 9.90624C1.62813 9.95624 1.55625 10.0094 1.475 10.1531C1.30938 10.45 1.425 10.6687 1.99688 11.1219C2.63125 11.625 3.39688 12.0094 4.275 12.2625C4.46875 12.3187 4.62813 12.375 4.62813 12.3875C4.62813 12.4281 4.28438 12.6531 4.00313 12.7969C3.65938 12.9719 3.24688 13.1062 2.8 13.1906C2.51875 13.2437 2.29375 13.2594 1.60938 13.2719C0.646875 13.2875 0.55 13.3031 0.421875 13.4937C0.328125 13.6312 0.31875 13.8281 0.39375 13.9875C0.45 14.1062 0.721875 14.3312 1.02188 14.5125C1.84063 15.0031 3.53125 15.4969 4.98438 15.6687C7.07813 15.9187 9.05938 15.6906 10.5938 15.0219C11.4656 14.6406 12.1188 14.1906 12.8031 13.4969C14.1563 12.1156 14.9438 10.5625 15.2406 8.68749C15.3188 8.18436 15.3188 6.93749 15.2375 6.34999L15.1813 5.93749L15.5656 5.32499C15.775 4.98748 15.9594 4.66561 15.9781 4.60936C16.0469 4.38436 15.9219 4.14373 15.6844 4.04998C15.575 4.00624 15.5125 4.00311 15.2438 4.03123C15.0719 4.04686 14.875 4.06249 14.8094 4.06249H14.6875L15.0781 3.28123C15.2906 2.85311 15.475 2.44999 15.4844 2.38436C15.5125 2.20623 15.4 2.00311 15.2188 1.91249C15.0469 1.82811 14.9969 1.82811 14.7813 1.91874ZM13.9375 3.42186C13.9375 3.42811 13.8188 3.67498 13.6719 3.97186C13.3875 4.54686 13.3625 4.64686 13.4625 4.84374C13.4906 4.90311 13.5625 4.98436 13.6219 5.02186C13.7375 5.09999 13.925 5.11248 14.3688 5.06561C14.4906 5.05311 14.5938 5.04998 14.5938 5.05936C14.5938 5.06874 14.5125 5.20623 14.4156 5.37186C14.2438 5.65311 14.2344 5.67811 14.2344 5.87186C14.2344 5.98436 14.2625 6.28749 14.2938 6.54686C14.3625 7.08124 14.3719 7.93749 14.3156 8.39061C14.1063 10.0562 13.4 11.4969 12.1656 12.7844C11.4719 13.5062 10.6813 14.0094 9.71563 14.3406C7.84688 14.9781 5.25313 14.9656 3.03125 14.3C2.83438 14.2406 2.69375 14.1875 2.71875 14.1781C2.74375 14.1687 2.87188 14.1437 3 14.125C3.61563 14.0281 4.35625 13.7406 4.88125 13.4C5.36563 13.0812 6.05313 12.4594 6.125 12.2656C6.20938 12.0469 6.12188 11.8 5.91563 11.6812C5.8625 11.6469 5.65625 11.5937 5.45625 11.5594C4.775 11.4437 4.10313 11.2375 3.54688 10.9719C3.25313 10.8312 2.875 10.6094 2.875 10.5781C2.875 10.5687 2.96563 10.5219 3.07813 10.4719C3.41875 10.3156 3.8125 10.0625 3.87813 9.95624C3.95625 9.82811 3.95625 9.57811 3.87813 9.45936C3.79375 9.32811 3.72188 9.29061 3.35313 9.16874C2.59375 8.91561 2.1125 8.61874 1.675 8.13124C1.48125 7.91249 1.1875 7.46874 1.1875 7.39061C1.1875 7.37186 1.35625 7.35936 1.65 7.35936C1.94063 7.35936 2.15 7.34374 2.22188 7.31874C2.45313 7.23749 2.59375 6.98436 2.53438 6.75624C2.51563 6.68749 2.41563 6.53124 2.3125 6.40311C2.1 6.14373 1.875 5.71249 1.79063 5.40624C1.725 5.16874 1.70938 4.34061 1.76875 4.28124C1.79375 4.25624 1.85938 4.32186 2.00625 4.52186C3.3875 6.38124 5.45938 7.51249 7.82188 7.69061C8.25 7.72186 8.2625 7.72186 8.4 7.64999C8.6 7.54686 8.66563 7.41561 8.64375 7.15624C8.56875 6.27499 8.59063 5.90311 8.74063 5.42186C9.13438 4.17498 10.15 3.41874 11.3563 3.47811C11.7656 3.49686 12.0219 3.56874 12.4063 3.77186C12.7531 3.95311 12.7969 3.94999 13.4094 3.64686C13.8813 3.41561 13.9375 3.39061 13.9375 3.42186Z" fill="black"/>
</g>
<defs>
<clipPath id="clip0_1_337">
<rect width="16" height="16" fill="white" transform="translate(0 0.8125)"/>
</clipPath>
</defs>
</svg>
