<svg width="16" height="17" viewBox="0 0 16 17" fill="none" xmlns="http://www.w3.org/2000/svg">
<path d="M6 2.78437C4.59375 2.81562 2.875 2.9 2.45 2.95625C1.8625 3.03125 1.45312 3.20625 1.05625 3.55312C0.640625 3.90937 0.4125 4.31875 0.2375 5.02187C0.065625 5.70937 0.015625 6.54687 0.015625 8.8125C0.015625 11.4969 0.09375 12.3969 0.39375 13.1469C0.740625 14.0094 1.38437 14.4875 2.40625 14.6375C2.92813 14.7125 3.44688 14.7469 5.03125 14.8C7.56563 14.8844 10.3063 14.8625 12.6031 14.7344C13.7937 14.6656 14.0281 14.6281 14.45 14.4187C15.0188 14.1344 15.3938 13.7031 15.6281 13.0562C15.9187 12.2687 15.9812 11.4937 15.9812 8.8125C15.9812 6.23125 15.9125 5.35 15.6594 4.6125C15.3813 3.8125 14.825 3.28125 14.025 3.05C13.6875 2.95312 13.325 2.91562 12.125 2.85937C10.0469 2.75937 8.07812 2.7375 6 2.78437ZM9.81875 3.71875C11.6 3.7625 13.375 3.85625 13.6719 3.925C13.9344 3.9875 14.1219 4.07812 14.3313 4.24375C14.5344 4.40312 14.6625 4.60625 14.7781 4.95312C14.9906 5.59062 15.0469 6.41875 15.0437 8.875C15.0437 11.4281 14.9844 12.1156 14.7156 12.8125C14.5188 13.3281 14.1625 13.6094 13.5813 13.7219C13.3844 13.7594 12.0531 13.8312 10.75 13.8781C9.425 13.9219 6.9 13.925 5.5 13.8781C2.6625 13.7875 2.2 13.7312 1.75313 13.4344C1.50313 13.2687 1.35938 13.0656 1.23125 12.6937C1.0125 12.0594 0.953125 11.2312 0.953125 8.8125C0.953125 6.41875 1.00938 5.63125 1.225 4.99062C1.34375 4.63437 1.43125 4.48125 1.61875 4.30625C1.9875 3.95937 2.23125 3.89062 3.3125 3.82812C5.34375 3.70937 7.67812 3.67187 9.81875 3.71875Z" fill="#ECF3FF"/>
<path d="M6.35624 6.1375C6.21249 6.20313 6.04374 6.39063 6.00312 6.54063C5.97499 6.63438 5.96874 7.23125 5.97499 8.725L5.98437 10.775L6.07812 10.9125C6.21249 11.1 6.40624 11.2031 6.63124 11.2C6.79999 11.1969 6.86874 11.1656 8.63124 10.2188C9.63124 9.68125 10.4937 9.20938 10.5406 9.175C10.6875 9.06875 10.7875 8.86875 10.7875 8.68125C10.7906 8.46563 10.725 8.31563 10.575 8.19063C10.5062 8.13438 9.79999 7.73125 8.99999 7.29063C6.74062 6.05313 6.81874 6.09375 6.62187 6.09375C6.52812 6.09688 6.40937 6.11563 6.35624 6.1375ZM8.32812 7.99375C8.93124 8.325 9.44999 8.60938 9.47812 8.63125C9.52499 8.66563 9.35624 8.76563 8.23437 9.36563C7.52187 9.75 6.93124 10.0625 6.92187 10.0625C6.91249 10.0625 6.90624 9.42188 6.90624 8.6375V7.2125L7.07187 7.30625C7.15937 7.35625 7.72812 7.66563 8.32812 7.99375Z" fill="#ECF3FF"/>
</svg>
